<svg id="Camada_1" data-name="Camada 1" xmlns="http://www.w3.org/2000/svg" viewBox="0 0 220 100"><defs><style>.cls-1{fill:#3a5460;}.cls-2{fill:#b01117;}</style></defs><title>logo_fatec</title><polygon class="cls-1" points="24.15 41.46 24.15 64.8 14 64.8 14 8.42 50.59 8.42 50.59 17.37 24.15 17.37 24.15 32.52 48.32 32.52 48.32 41.46 24.15 41.46"/><path class="cls-1" d="M204.73,50.25c0,10-6.9,15.23-17.28,15.23s-17.19-5.68-17.19-15.61V39.94c0-9.92,6.89-15.68,17.19-15.68s17.28,5.3,17.28,15.31v.68h-8.86c0-5.69-3.11-8-8.42-8s-8.25,2.72-8.25,8.48V49c0,5.77,3,8.49,8.25,8.49s8.42-2.27,8.42-8h8.86Z"/><path class="cls-1" d="M81.38,64.8V60.18l-4.16,2.27a20.63,20.63,0,0,1-10.54,2.88c-7.12,0-11.89-4.62-11.89-11.37,0-8.33,6.51-12.2,14.78-12.2H81.46V39.42c0-5.16-2.95-7.66-8.18-7.66-5.46,0-8.64,2.28-8.64,7H55.7v-.52c0-9,7.12-14.1,17.5-14.1,10.91,0,17.2,5.45,17.2,15V64.8Zm0-16.52H70.78c-5.53,0-6.82,2.58-6.82,5.23C64,56.31,65.7,58,68.73,58a14.25,14.25,0,0,0,6.9-2l5.75-3.11Z"/><path class="cls-1" d="M116.79,64.79c-9.24,0-15.23-4.61-15.23-13.71V32.67H95.5V24.86h6.06V14H111V24.86H122v7.81H111V50.55c0,4.7,2.12,6.29,6.58,6.29h4.71v8Z"/><path class="cls-1" d="M162.27,52.22c0,8.11-7,13.26-17.5,13.26-10.31,0-17.65-5.61-17.65-15.38V40.63c0-10.08,7.34-16.37,17.65-16.37s17.58,6,17.58,16.52v7H135.83v2c0,5.69,3.79,8.19,9,8.19s8.64-1.82,8.64-6.14h8.79Zm-8.56-11.59c0-5.69-3.33-8.79-8.87-8.79s-9,3.1-9,8.86v1h17.88Z"/><path class="cls-2" d="M117.64,82.73c0,3.87-2.61,6-6.66,6-3.72,0-6.8-2-6.8-6.73V78.68c0-4.8,3.06-6.78,6.8-6.78,4,0,6.66,2.11,6.66,6v.27h-3c0-2.51-1.34-3.65-3.65-3.65-2.07,0-3.85,1-3.85,4.35v2.91c0,3.36,1.78,4.35,3.85,4.35,2.31,0,3.65-1.18,3.65-3.65h3Z"/><path class="cls-2" d="M127.48,88.45V87.1l-1.21.66a5.94,5.94,0,0,1-3.06.84,3.21,3.21,0,0,1-3.46-3.3c0-2.42,1.9-3.54,4.29-3.54h3.46v-.69c0-1.49-.86-2.22-2.38-2.22s-2.5.66-2.5,2H120v-.16c0-2.62,2.07-4.09,5.08-4.09,3.17,0,5,1.58,5,4.36v7.46Zm0-4.8H124.4c-1.61,0-2,.75-2,1.52a1.22,1.22,0,0,0,1.38,1.29,4,4,0,0,0,2-.57l1.67-.9Z"/><path class="cls-2" d="M146.09,88.45V80.57c0-1-.44-1.43-1.23-1.43a2.91,2.91,0,0,0-1.39.46l-1.41.86v8H139.4V80.59c0-1-.42-1.43-1.21-1.43a3,3,0,0,0-1.41.44l-1.38.86v8h-2.67V76.85h2.62v1.21l1-.62a4.65,4.65,0,0,1,2.44-.7,2.82,2.82,0,0,1,2.75,1.56l1.28-.77a4.72,4.72,0,0,1,2.66-.79c2,0,3.23,1.3,3.23,3.52v8.19Z"/><path class="cls-2" d="M151.48,92.49V76.85h2.59V78.1l1.35-.72A5.23,5.23,0,0,1,158,76.7a3.79,3.79,0,0,1,4,4v3.89a3.86,3.86,0,0,1-4.05,4,5.31,5.31,0,0,1-2.55-.68l-1.32-.73v5.32Zm7.9-11.5a1.74,1.74,0,0,0-1.81-1.9,3.42,3.42,0,0,0-1.63.44l-1.82,1V84.7l1.82,1a3.22,3.22,0,0,0,1.63.46,1.74,1.74,0,0,0,1.81-1.89Z"/><path class="cls-2" d="M167.45,73.73c0,.81-.64,1.25-1.52,1.25s-1.52-.44-1.52-1.25v-.49c0-.83.66-1.27,1.52-1.27s1.52.44,1.52,1.27Zm-2.88,3.12h2.73v11.6h-2.73Z"/><path class="cls-2" d="M177.53,88.45V80.83A1.55,1.55,0,0,0,176,79.12a2.87,2.87,0,0,0-1.52.5l-1.7,1v7.82h-2.66V76.85h2.64v1.36l1.23-.74a4.82,4.82,0,0,1,2.58-.75,3.47,3.47,0,0,1,3.65,3.76v8Z"/><path class="cls-2" d="M190.2,88.45V87.1l-1.21.66a5.94,5.94,0,0,1-3.06.84,3.21,3.21,0,0,1-3.46-3.3c0-2.42,1.9-3.54,4.3-3.54h3.45v-.69c0-1.49-.86-2.22-2.38-2.22s-2.5.66-2.5,2h-2.6v-.16c0-2.62,2.07-4.09,5.08-4.09,3.17,0,5,1.58,5,4.36v7.46Zm0-4.8h-3.08c-1.61,0-2,.75-2,1.52a1.22,1.22,0,0,0,1.38,1.29,4,4,0,0,0,2-.57l1.67-.9Z"/><path class="cls-2" d="M202.47,80.61c0-1.23-.85-1.8-2.35-1.8s-2.27.61-2.27,1.43c0,2.66,7.29,0,7.29,4.77,0,2.27-2,3.61-5,3.61-3.21,0-5.06-1.43-5.06-3.78V84.7h2.68c0,1.24.88,1.81,2.42,1.81s2.38-.59,2.38-1.43c0-2.4-7.28,0-7.28-4.78,0-2.28,1.91-3.63,4.93-3.63,3.19,0,4.9,1.46,4.9,3.81v.13Z"/></svg>